<?xml version="1.0" standalone="no"?>
<svg viewBox="0 0 200 200" xmlns="http://www.w3.org/2000/svg">
  <path fill="#BAE6FF" d="M38.6,-53.5C52.9,-42.8,69.2,-35.3,74.7,-23.2C80.1,-11.1,74.6,5.7,66.6,18.9C58.5,32.1,47.9,41.7,36.4,50.5C24.9,59.2,12.4,67.1,-0.6,68C-13.7,68.9,-27.5,62.8,-38,53.7C-48.6,44.7,-56.1,32.7,-54.7,21.4C-53.3,10.2,-43,-0.2,-41.8,-16.5C-40.5,-32.8,-48.2,-54.9,-42.8,-68.5C-37.3,-82.1,-18.6,-87.1,-3.2,-82.7C12.2,-78.2,24.3,-64.2,38.6,-53.5Z" transform="translate(100 100)" />
</svg>
